<?xml version="1.0" encoding="UTF-8" standalone="no"?>
<!DOCTYPE svg PUBLIC "-//W3C//DTD SVG 1.1//EN"
 "http://www.w3.org/Graphics/SVG/1.1/DTD/svg11.dtd">
<!-- Generated by graphviz version 2.43.0 (0)
 -->
<!-- Title: G Pages: 1 -->
<svg width="846pt" height="44pt"
 viewBox="0.00 0.00 846.00 44.00" xmlns="http://www.w3.org/2000/svg" xmlns:xlink="http://www.w3.org/1999/xlink">
<g id="graph0" class="graph" transform="scale(1 1) rotate(0) translate(4 40)">
<title>G</title>
<polygon fill="white" stroke="transparent" points="-4,4 -4,-40 842,-40 842,4 -4,4"/>
<!-- azurerm_container_group.example -->
<g id="node1" class="node">
<title>azurerm_container_group.example</title>
<polygon fill="none" stroke="black" points="838,-36 581,-36 581,0 838,0 838,-36"/>
<text text-anchor="middle" x="709.5" y="-14.3" font-family="sans-serif" font-size="14.00">azurerm_container_group.example</text>
</g>
<!-- azurerm_container_registry.myregistry -->
<g id="node2" class="node">
<title>azurerm_container_registry.myregistry</title>
<polygon fill="none" stroke="black" points="545,-36 262,-36 262,0 545,0 545,-36"/>
<text text-anchor="middle" x="403.5" y="-14.3" font-family="sans-serif" font-size="14.00">azurerm_container_registry.myregistry</text>
</g>
<!-- azurerm_container_group.example&#45;&gt;azurerm_container_registry.myregistry -->
<g id="edge1" class="edge">
<title>azurerm_container_group.example&#45;&gt;azurerm_container_registry.myregistry</title>
<path fill="none" stroke="black" d="M580.9,-18C572.37,-18 563.74,-18 555.12,-18"/>
<polygon fill="black" stroke="black" points="555,-14.5 545,-18 555,-21.5 555,-14.5"/>
</g>
<!-- azurerm_resource_group.react -->
<g id="node3" class="node">
<title>azurerm_resource_group.react</title>
<polygon fill="none" stroke="black" points="226,-36 0,-36 0,0 226,0 226,-36"/>
<text text-anchor="middle" x="113" y="-14.3" font-family="sans-serif" font-size="14.00">azurerm_resource_group.react</text>
</g>
<!-- azurerm_container_registry.myregistry&#45;&gt;azurerm_resource_group.react -->
<g id="edge2" class="edge">
<title>azurerm_container_registry.myregistry&#45;&gt;azurerm_resource_group.react</title>
<path fill="none" stroke="black" d="M261.63,-18C253.19,-18 244.73,-18 236.38,-18"/>
<polygon fill="black" stroke="black" points="236.25,-14.5 226.25,-18 236.25,-21.5 236.25,-14.5"/>
</g>
</g>
</svg>
